<?xml version="1.0" standalone="no"?>
<!DOCTYPE svg PUBLIC "-//W3C//DTD SVG 20010904//EN"
 "http://www.w3.org/TR/2001/REC-SVG-20010904/DTD/svg10.dtd">
<svg version="1.0" xmlns="http://www.w3.org/2000/svg"
 width="512.000000pt" height="512.000000pt" viewBox="0 0 512.000000 512.000000"
 preserveAspectRatio="xMidYMid meet">
<metadata>
Created by potrace 1.11, written by Peter Selinger 2001-2013
</metadata>
<g transform="translate(0.000000,512.000000) scale(0.100000,-0.100000)"
fill="#000000" stroke="none">
<path d="M2563 4962 c-9 -9 -40 -14 -88 -15 -52 0 -75 -4 -75 -13 0 -7 -10
-11 -25 -9 -14 1 -25 -2 -25 -7 0 -5 -6 -6 -12 -1 -25 15 -85 2 -73 -17 3 -4
-13 -7 -34 -5 -27 2 -41 -1 -45 -11 -3 -8 -14 -14 -24 -14 -10 0 -27 -9 -37
-20 -12 -13 -22 -17 -29 -11 -16 14 -29 11 -44 -10 -7 -10 -21 -16 -32 -14
-11 2 -19 1 -17 -3 4 -12 -43 -53 -53 -47 -5 3 -23 -8 -40 -25 -16 -16 -35
-30 -43 -30 -13 0 -157 -137 -157 -150 0 -4 -9 -10 -21 -13 -12 -3 -18 -10
-14 -16 3 -6 -1 -11 -10 -11 -11 0 -15 -5 -11 -15 3 -9 -8 -28 -27 -47 -17
-18 -31 -36 -29 -40 1 -5 -3 -7 -10 -5 -7 1 -13 -9 -14 -22 -1 -13 -6 -26 -11
-30 -17 -11 -45 -80 -37 -92 4 -7 3 -10 -2 -7 -13 8 -31 -15 -28 -35 1 -9 -4
-17 -12 -17 -9 0 -14 -11 -14 -31 0 -16 -4 -28 -9 -25 -4 3 -13 -6 -19 -19 -8
-16 -8 -25 -1 -25 6 0 6 -8 -2 -21 -9 -17 -8 -20 2 -14 13 9 6 -6 -15 -34 -6
-8 -11 -27 -12 -44 -1 -16 -7 -33 -14 -37 -13 -8 -20 -130 -7 -130 5 0 5 -5 1
-11 -10 -18 -10 -159 1 -163 7 -3 7 -5 0 -5 -6 -1 -9 -28 -8 -63 1 -35 2 -71
3 -80 0 -10 6 -18 13 -18 10 0 13 -12 12 -40 -1 -28 2 -40 12 -40 13 0 17 -11
13 -43 -1 -10 4 -26 12 -35 9 -11 9 -14 1 -8 -9 5 -11 2 -7 -8 3 -9 11 -13 16
-10 6 4 8 -5 6 -22 -2 -19 1 -28 10 -26 11 2 15 -10 15 -50 0 -10 3 -15 7 -13
4 3 12 -1 18 -8 10 -12 12 -17 12 -38 0 -5 4 -8 9 -5 5 3 8 -8 7 -24 -1 -18 3
-30 10 -30 6 0 15 -7 18 -16 3 -8 10 -12 16 -9 6 4 10 -7 10 -25 0 -20 4 -29
11 -25 6 4 13 -2 16 -14 3 -11 9 -18 14 -15 8 5 14 -17 10 -39 0 -4 2 -6 6 -5
5 2 9 0 10 -5 4 -14 107 -112 115 -109 4 1 8 -4 8 -11 0 -17 38 -48 53 -45 7
2 12 1 12 -2 0 -3 19 -22 41 -43 27 -24 47 -35 58 -31 15 6 21 -5 17 -29 -1
-5 3 -6 8 -3 5 4 16 -3 24 -15 10 -13 16 -16 19 -8 3 8 11 5 24 -9 13 -14 28
-20 43 -17 13 2 28 -3 38 -15 9 -10 22 -16 30 -13 8 3 21 -4 29 -16 12 -17 19
-19 34 -11 15 8 24 6 38 -8 14 -14 32 -18 68 -17 29 1 55 -4 65 -12 18 -15
127 -22 147 -9 7 4 12 4 12 -1 0 -9 210 -8 247 2 13 3 22 9 19 14 -3 4 23 7
58 5 53 -2 67 1 82 17 12 14 21 16 30 8 8 -7 14 -7 19 1 3 6 10 8 15 5 4 -3
11 2 14 11 4 9 13 14 21 10 9 -3 20 2 26 12 8 13 22 17 50 15 32 -2 39 1 37
15 -2 13 3 16 26 14 17 -2 26 0 22 6 -3 6 3 13 14 17 11 4 18 11 15 16 -6 9 8
13 33 10 7 -1 15 5 18 14 3 8 12 15 19 15 7 0 16 7 19 16 3 9 12 14 19 12 13
-5 58 37 49 46 -3 3 -1 6 4 6 14 0 80 62 76 72 -1 4 2 8 8 8 13 0 59 48 52 54
-3 3 0 6 7 6 18 0 41 26 41 45 0 9 15 30 33 46 27 25 29 31 17 39 -13 9 -13
10 0 11 8 1 18 1 23 0 4 0 6 2 6 6 -5 29 3 53 17 53 8 0 13 4 9 9 -3 6 3 15
14 21 11 6 18 16 15 24 -3 7 2 21 11 30 9 9 15 26 13 38 -2 13 2 28 9 33 7 6
14 24 16 41 2 18 10 39 19 47 10 11 14 30 12 61 -3 35 0 46 12 46 11 0 14 12
12 58 -1 31 1 63 5 70 5 6 4 12 -1 12 -10 0 -9 30 2 48 4 6 3 12 -2 12 -10 0
-9 30 2 48 4 6 3 12 -2 12 -10 0 -9 30 2 48 4 6 3 12 -2 12 -10 0 -9 30 2 48
4 6 3 12 -2 12 -10 0 -9 30 2 48 4 6 3 12 -2 12 -5 0 -8 12 -6 26 1 16 -5 35
-17 47 -10 11 -16 23 -12 26 15 11 9 56 -9 69 -9 7 -15 21 -13 32 2 13 -2 20
-11 20 -14 0 -16 5 -16 52 -1 18 -7 30 -20 34 -13 4 -16 9 -9 18 10 12 0 38
-15 37 -5 0 -8 10 -8 24 1 19 -4 25 -19 25 -15 0 -17 3 -9 13 13 15 4 31 -21
40 -10 4 -16 10 -14 14 5 10 -30 43 -37 36 -3 -4 -6 9 -6 27 0 18 -3 31 -6 27
-7 -7 -74 61 -74 76 0 5 -3 8 -6 4 -7 -7 -114 102 -114 116 0 6 -3 8 -6 4 -4
-3 -13 1 -21 9 -8 8 -19 12 -24 9 -5 -4 -9 1 -9 9 0 10 -6 13 -15 10 -9 -4
-15 0 -15 10 0 9 -7 16 -15 16 -8 0 -15 7 -15 15 0 9 -9 15 -21 15 -11 0 -27
7 -35 15 -8 8 -21 12 -29 9 -10 -4 -15 0 -15 11 0 13 -6 16 -25 13 -13 -3 -23
-2 -21 1 6 9 -16 26 -39 29 -11 2 -25 10 -31 17 -6 8 -21 13 -33 10 -13 -2
-30 3 -38 11 -9 8 -22 13 -29 10 -8 -3 -14 -2 -14 2 0 5 -20 7 -44 6 -30 -2
-46 2 -50 11 -3 9 -21 13 -55 12 -29 -1 -51 2 -51 8 0 6 -4 4 -9 -3 -9 -16
-20 -15 -40 1 -12 9 -13 9 -7 0 4 -7 3 -13 -3 -13 -5 0 -11 7 -13 17 -4 21
-85 25 -105 5z m112 -707 c50 -3 56 -5 50 -15 -4 -6 -3 -10 2 -9 4 1 22 1 40
0 22 -1 31 -5 27 -14 -3 -10 6 -13 33 -12 30 1 42 -5 58 -24 11 -15 29 -27 39
-29 21 -4 107 -85 110 -105 4 -22 31 -57 44 -57 8 0 12 -6 8 -15 -3 -8 2 -21
10 -30 9 -9 16 -33 16 -59 0 -27 5 -46 12 -49 19 -8 19 -196 -1 -218 -8 -9
-13 -32 -11 -54 1 -24 -3 -41 -13 -49 -8 -6 -14 -18 -14 -26 0 -18 -47 -68
-58 -62 -5 2 -4 -5 2 -16 9 -17 8 -22 -9 -27 -11 -4 -18 -11 -15 -16 4 -5 -1
-9 -9 -9 -14 0 -20 -11 -18 -31 1 -3 -10 -4 -23 -1 -15 2 -25 0 -25 -7 0 -6
-7 -11 -16 -11 -8 0 -13 -4 -10 -9 3 -5 -6 -16 -19 -25 -14 -9 -23 -20 -21
-25 3 -4 -8 -5 -24 -3 -17 2 -35 -2 -44 -10 -8 -8 -28 -14 -45 -13 -16 1 -28
-2 -25 -6 2 -4 -5 -13 -17 -19 -17 -10 -20 -9 -14 1 6 8 4 10 -6 3 -19 -11
-71 -12 -86 0 -7 4 -13 5 -13 0 0 -14 -73 -10 -78 4 -2 7 -8 10 -13 6 -5 -3
-9 -1 -9 4 0 5 -14 8 -31 7 -19 -2 -33 3 -36 11 -3 8 -16 14 -29 14 -14 0 -24
6 -24 14 0 8 -7 13 -17 12 -9 -2 -32 12 -50 31 -19 18 -39 31 -43 28 -5 -3
-12 0 -16 6 -5 8 -2 10 7 5 8 -4 5 0 -5 8 -11 9 -16 16 -12 16 4 0 -10 16 -31
35 -21 19 -41 35 -45 35 -4 0 -5 11 -2 25 3 18 0 25 -12 25 -11 0 -15 6 -11
20 3 13 -1 24 -14 30 -14 8 -18 19 -15 48 4 43 -2 64 -15 56 -5 -3 -9 -2 -10
3 -5 39 -4 70 4 81 6 7 6 12 0 12 -5 0 -9 9 -9 20 0 11 4 20 9 20 5 0 5 6 -1
13 -11 13 -2 47 13 50 6 1 10 17 9 35 -1 21 4 32 12 32 8 0 14 11 14 25 0 14
7 28 16 32 8 3 13 12 10 19 -3 7 13 32 35 54 23 23 42 47 43 53 3 21 17 38 26
32 5 -3 29 14 53 38 36 35 50 43 75 41 29 -2 36 4 34 27 -1 4 15 5 35 2 26 -4
38 -1 45 10 6 12 22 15 68 13 37 -2 57 1 53 7 -4 6 -1 7 8 2 7 -5 27 -10 44
-10z"/>
<path d="M1547 2338 c-10 -11 -25 -17 -33 -14 -7 3 -18 -4 -24 -15 -6 -11 -15
-17 -20 -14 -5 3 -39 -23 -74 -59 -39 -38 -60 -67 -53 -69 9 -4 8 -6 -1 -6 -7
-1 -10 -5 -7 -11 3 -5 -1 -10 -11 -10 -12 0 -15 -7 -12 -32 3 -34 -22 -73 -38
-60 -5 4 -4 0 2 -8 12 -17 12 -30 1 -47 -5 -7 -4 -13 2 -13 5 0 8 -10 6 -22
-3 -13 4 -28 17 -40 11 -10 17 -18 11 -18 -5 0 -8 -13 -5 -30 2 -16 8 -28 12
-25 5 3 11 -4 15 -15 4 -11 11 -18 16 -15 5 4 9 3 10 -2 3 -33 13 -50 47 -82
22 -20 37 -42 35 -48 -3 -7 2 -16 11 -19 9 -3 16 -12 16 -20 0 -8 7 -14 16
-14 11 0 14 -6 9 -21 -5 -15 -4 -19 4 -15 10 7 16 -7 11 -29 -1 -5 2 -7 5 -3
10 10 67 -51 59 -63 -6 -10 60 -79 75 -79 4 0 6 -12 3 -27 -2 -16 -2 -25 2
-22 10 9 76 -60 76 -79 0 -9 18 -32 39 -52 22 -21 41 -45 43 -56 2 -10 22 -38
46 -61 24 -24 40 -47 37 -53 -7 -11 30 -51 39 -43 3 4 6 2 7 -3 3 -33 12 -50
49 -85 22 -22 38 -43 35 -49 -3 -5 13 -27 35 -48 23 -22 42 -46 43 -53 3 -18
35 -64 45 -64 4 0 6 -6 6 -12 -2 -12 9 -17 27 -15 3 1 5 -10 3 -23 -1 -14 2
-25 8 -25 15 0 78 -72 72 -82 -4 -5 3 -16 15 -25 12 -8 35 -38 51 -66 16 -29
30 -48 30 -44 0 4 12 -5 26 -20 14 -15 32 -27 40 -25 7 1 18 -7 24 -18 8 -15
15 -18 23 -12 11 10 42 -10 32 -20 -3 -2 42 -4 98 -4 87 0 104 2 115 18 9 13
18 16 30 9 9 -5 26 -5 37 0 11 4 16 8 11 8 -5 1 24 32 64 71 40 38 70 70 66
70 -4 0 -1 6 6 14 7 8 18 11 23 8 6 -3 5 1 -2 9 -9 11 -7 18 11 34 12 11 26
21 32 23 5 1 9 11 9 21 0 11 17 36 38 56 21 21 40 46 42 57 2 10 21 35 43 56
21 20 38 44 37 52 0 8 15 27 34 43 18 15 29 27 24 27 -5 0 -10 7 -10 15 0 8 4
15 9 15 5 0 21 12 35 28 14 15 29 26 33 25 4 -1 6 11 5 27 -1 16 1 28 4 27 8
-2 75 63 77 75 1 4 2 15 3 24 0 8 5 13 10 9 5 -3 12 4 16 15 4 11 10 18 14 16
4 -3 15 8 25 25 9 16 15 29 12 29 -3 0 7 12 21 28 14 15 29 26 33 25 4 -1 6 6
3 16 -3 12 9 32 36 58 23 22 41 45 41 52 0 7 9 24 20 38 11 14 20 23 20 19 0
-3 8 2 18 12 10 9 18 24 17 32 -1 8 18 34 42 58 23 24 43 52 43 63 0 11 7 19
17 19 9 0 14 3 10 6 -7 8 36 53 46 47 4 -2 7 7 7 21 0 14 5 26 10 26 6 0 10 7
10 15 0 8 6 15 14 15 17 0 30 30 13 30 -7 1 -3 8 8 18 11 10 21 24 23 32 2 8
9 22 16 30 16 19 14 149 -2 159 -6 4 -12 22 -14 40 -1 20 -10 37 -21 43 -13 6
-16 13 -9 20 7 7 0 19 -19 38 -16 15 -29 32 -29 39 0 6 -5 11 -11 11 -5 0 -7
5 -3 12 5 8 2 9 -9 5 -11 -4 -21 1 -28 14 -7 13 -17 19 -29 16 -12 -3 -20 2
-23 13 -3 12 -13 17 -31 15 -16 -2 -26 2 -26 10 0 7 -13 15 -30 17 -16 3 -30
2 -30 -2 0 -3 -16 -4 -35 -2 -43 5 -88 -5 -80 -18 4 -6 -6 -10 -22 -9 -42 3
-55 0 -49 -10 6 -9 -35 -41 -53 -41 -11 0 -73 -60 -63 -61 4 0 -4 -5 -17 -10
-18 -7 -22 -15 -19 -34 4 -20 1 -25 -14 -25 -11 0 -16 -5 -13 -10 3 -6 -1 -13
-9 -16 -9 -3 -16 -12 -16 -20 0 -8 -6 -13 -12 -12 -8 2 -13 -7 -13 -22 0 -15
-7 -26 -18 -28 -9 -2 -17 -9 -17 -16 0 -7 -11 -18 -24 -25 -16 -9 -23 -21 -21
-36 1 -16 -4 -25 -17 -29 -11 -2 -17 -9 -14 -15 4 -5 -3 -12 -13 -16 -11 -3
-18 -12 -15 -19 3 -7 -2 -20 -10 -29 -8 -8 -12 -17 -9 -21 4 -3 0 -6 -9 -6
-16 0 -50 -32 -47 -46 4 -21 -2 -35 -11 -29 -5 3 -10 2 -10 -3 0 -5 -16 -26
-36 -46 -27 -28 -34 -40 -24 -46 9 -6 7 -9 -7 -14 -11 -4 -26 -18 -33 -31 -7
-14 -19 -25 -27 -25 -7 0 -13 -11 -13 -24 0 -13 -7 -27 -16 -30 -8 -3 -12 -10
-9 -16 3 -5 0 -10 -7 -10 -8 0 -21 -9 -31 -20 -20 -24 -22 -34 -4 -24 6 5 -4
-10 -22 -32 -19 -21 -38 -38 -43 -37 -4 2 -4 -4 -1 -13 4 -10 -1 -20 -11 -26
-9 -5 -14 -13 -11 -19 4 -5 0 -9 -8 -9 -8 0 -17 -7 -21 -15 -12 -33 -82 -3
-81 35 1 8 -12 27 -27 43 -15 15 -28 36 -28 47 0 11 -3 19 -8 17 -4 -1 -8 2
-9 6 -4 12 -31 37 -41 37 -5 0 -15 14 -22 30 -7 17 -17 30 -22 30 -5 0 -7 4
-4 9 4 5 -8 21 -25 35 -16 14 -28 30 -24 36 3 5 -10 25 -30 45 -20 19 -33 39
-30 45 4 6 1 9 -6 8 -7 -2 -14 3 -15 10 -1 6 -2 17 -3 22 0 6 -8 10 -16 10 -8
0 -15 4 -15 9 0 4 -11 20 -25 35 -13 14 -22 33 -19 41 4 8 1 15 -5 15 -16 0
-51 37 -51 54 0 7 -18 32 -41 55 -22 23 -38 48 -36 54 2 7 -12 24 -31 39 -19
16 -31 28 -26 28 4 0 0 6 -11 13 -10 8 -15 19 -11 25 3 6 -3 17 -14 25 -11 7
-17 17 -13 20 3 4 0 7 -8 7 -16 0 -49 34 -49 51 0 5 -4 7 -10 4 -5 -3 -10 2
-10 11 0 10 -3 15 -6 12 -3 -4 -14 2 -25 13 -10 10 -28 19 -38 19 -11 0 -23 5
-27 12 -5 7 -3 8 6 3 8 -5 11 -4 6 3 -3 6 -16 9 -27 7 -11 -2 -22 2 -26 11 -4
10 -17 14 -42 12 -20 -1 -42 2 -49 6 -7 4 -12 3 -12 -1 0 -9 -40 -10 -56 -1
-5 2 -17 -4 -27 -14z"/>
</g>
</svg>
