<?xml version="1.0" standalone="no"?>
<!DOCTYPE svg PUBLIC "-//W3C//DTD SVG 20010904//EN"
 "http://www.w3.org/TR/2001/REC-SVG-20010904/DTD/svg10.dtd">
<svg version="1.0" xmlns="http://www.w3.org/2000/svg"
 width="1250.000000pt" height="1250.000000pt" viewBox="0 0 1250.000000 1250.000000"
 preserveAspectRatio="xMidYMid meet">
<metadata>
Created by potrace 1.11, written by Peter Selinger 2001-2013
</metadata>
<g transform="translate(0.000000,1250.000000) scale(0.100000,-0.100000)"
fill="#000000" stroke="none">
<path d="M4095 12494 c-600 -51 -1092 -180 -1595 -417 -475 -223 -973 -590
-1332 -980 -653 -711 -1043 -1572 -1150 -2542 -19 -176 -19 -4434 0 -4610 133
-1199 706 -2248 1637 -2993 573 -459 1271 -770 2000 -892 342 -57 233 -55
2595 -55 2362 0 2253 -2 2595 55 1065 178 2023 744 2703 1595 520 651 839
1434 934 2290 19 176 19 4434 0 4610 -133 1199 -706 2248 -1637 2993 -563 450
-1256 763 -1967 887 -361 63 -184 59 -2568 60 -1196 1 -2193 0 -2215 -1z
m2508 -1648 c553 -89 1017 -312 1381 -666 415 -402 686 -925 773 -1490 26
-170 23 -452 -5 -637 -45 -287 -120 -535 -237 -780 -124 -259 -224 -413 -633
-968 l-280 -380 962 -5 c1078 -7 1002 -1 1161 -83 115 -59 235 -181 293 -298
168 -341 31 -740 -313 -909 -147 -72 -121 -70 -1175 -70 -517 0 -940 -2 -940
-5 0 -2 165 -228 367 -502 839 -1138 1004 -1365 1028 -1414 56 -110 70 -323
29 -459 -31 -107 -93 -210 -174 -290 -132 -131 -259 -188 -441 -197 -201 -11
-360 49 -497 186 -55 54 -298 377 -862 1142 -469 638 -789 1065 -797 1062 -7
-3 -362 -483 -790 -1066 -566 -773 -799 -1083 -855 -1138 -137 -137 -296 -197
-497 -186 -182 9 -308 66 -442 197 -161 160 -231 398 -184 625 8 39 25 92 37
118 12 27 331 470 709 985 l687 937 -972 5 c-1078 6 -1007 2 -1152 75 -276
140 -423 446 -359 749 49 232 248 440 490 512 55 17 132 18 1018 21 526 2 957
6 957 8 0 3 -125 175 -277 382 -426 580 -542 762 -666 1043 -152 346 -220 658
-221 1015 -1 330 50 598 170 897 192 480 543 907 979 1194 350 230 699 354
1145 408 82 10 489 -3 583 -18z"/>
<path d="M6101 9509 c-97 -12 -273 -65 -354 -105 -209 -105 -385 -263 -495
-447 -78 -129 -104 -191 -143 -348 -30 -117 -31 -130 -27 -278 4 -145 7 -164
42 -274 81 -261 236 -510 696 -1122 140 -187 294 -393 341 -458 l86 -118 94
128 c51 70 197 265 324 433 267 351 362 484 474 663 285 455 341 735 225 1115
-91 299 -317 558 -620 710 -69 35 -269 91 -362 102 -100 11 -189 11 -281 -1z"/>
</g>
</svg>
